<?xml version="1.0" encoding="utf-8"?>
<!-- Generator: Adobe Illustrator 24.1.0, SVG Export Plug-In . SVG Version: 6.00 Build 0)  -->
<svg version="1.1" id="Layer_1_1_" xmlns="http://www.w3.org/2000/svg" xmlns:xlink="http://www.w3.org/1999/xlink" x="20px" y="20px"
	 viewBox="0 0 19.3 10" style="enable-background:new 2 2 19.3 6;" white-space="pre" preserveAspectRatio="none">
<style type="text/css">
	.st0{fill:#1ADAFF;}
</style>
<path class="st0" d="M-5,4.1C-4.9,4.6-2.8,8,0,8s4.2-1.2,5.5-2.2C6.6,4.8,7.6,4,9.7,4s3,0.8,4.2,1.8c1.3,1,2.7,2.2,5.5,2.2
	s5.3-3.8,5.4-4.3l0,0c0.2-1.2-1.7-1.4-2.4-0.9c-0.8,0.5-1.7,0.9-3.1,0.9c-2.1,0-3-0.8-4.2-1.8s-2.7-2.2-5.4-2.2
	c-2.8,0-4.2,1.2-5.5,2.2C3,2.9,2.1,3.7,0,3.7c-1.4,0-2.3-0.4-3-0.9C-3.8,2.3-5.3,2.8-5,4.1L-5,4.1z"/>
</svg>
